<svg width="130" height="150" viewBox="0 0 130 150" fill="none" xmlns="http://www.w3.org/2000/svg">
<path fill-rule="evenodd" clip-rule="evenodd" d="M1.62622 36.4668C2.44113 35.3054 3.2622 34.949 3.2622 34.949C3.2622 34.949 52.2875 6.3108 60.9343 1.32292C61.6384 0.909969 62.021 0.685633 62.021 0.685633C62.021 0.685633 63.1435 -0.0430144 65 0.0020082C66.8565 -0.0430158 67.979 0.685633 67.979 0.685633C67.979 0.685633 68.3616 0.909976 69.0658 1.32294C77.7126 6.31086 126.738 34.949 126.738 34.949C126.738 34.949 127.559 35.3054 128.374 36.4667C129.958 37.9332 129.999 39.8439 129.999 39.8439C129.999 39.8439 129.994 46.334 129.988 55.3694C129.991 69.2195 129.982 90.3913 129.977 101.109C129.979 104.042 129.982 106.417 129.987 107.989C129.998 108.153 130.008 108.434 129.99 108.797C129.993 109.405 129.996 109.816 129.999 110C130.057 113.106 126.224 115.439 126.224 115.439L68.5183 149.157C67.2876 149.814 66.0682 150.016 65 149.999C63.9317 150.016 62.7124 149.814 61.4817 149.157L3.77571 115.439C3.77571 115.439 -0.0572408 113.106 0.000649206 110C0.00411865 109.816 0.00717583 109.406 0.00985749 108.797C-0.00794807 108.434 0.00215816 108.153 0.0128496 107.989C0.0177956 106.417 0.0211977 104.044 0.0233808 101.113C0.0180467 90.3971 0.00893934 69.2254 0.0123291 55.3737C0.00629795 46.3361 0.000643072 39.8439 0.000643072 39.8439C0.000643072 39.8439 0.0416485 37.9333 1.62622 36.4668ZM23.0663 109.859C34.8815 116.733 62.7161 133.037 62.7161 133.037C62.7161 133.037 63.657 133.551 65 133.672C66.343 133.551 67.2839 133.037 67.2839 133.037C67.2839 133.037 95.1185 116.733 106.934 109.859L67.7689 85.8767C67.7689 85.8767 65.8885 84.6202 65 81.8385C64.1116 84.6202 62.2311 85.8767 62.2311 85.8767L23.0663 109.859ZM64.5453 66.8685L14.4437 97.5593C14.4421 94.7954 14.4401 90.4328 14.4386 85.4388L14.434 63.3262C14.4345 56.4748 14.4376 51.0209 14.4457 49.6163C14.4746 44.7445 16.9863 43.6572 16.9863 43.6572C16.9863 43.6572 60.3218 18.4244 63.1391 16.8432C63.8188 16.5491 64.4436 16.3982 65 16.3382C65.5564 16.3982 66.1812 16.5491 66.8609 16.8432C69.6783 18.4244 113.014 43.6572 113.014 43.6572C113.014 43.6572 115.525 44.7445 115.554 49.6163C115.562 51.0209 115.565 56.4748 115.566 63.3262L115.561 85.4388C115.56 90.4328 115.558 94.7954 115.556 97.5593L65.4547 66.8685V66.3114L65 66.5899L64.5453 66.3114V66.8685Z" fill="#38ABBE"/>
</svg>
